<svg xmlns="http://www.w3.org/2000/svg" width="35" height="33" viewBox="0 0 91 85" fill="none">
  <path d="M4.29803 3.58443C7.78174 2.55222 11.6525 2.55222 15.3943 3.06833C19.2651 3.58443 23.0068 4.74567 26.6196 6.16496C33.458 8.87451 39.7802 12.6163 45.4574 17.2612C57.5859 27.3253 66.3597 40.744 71.7788 55.453C73.8432 61.1301 75.3915 66.8073 76.6818 72.7425C75.6495 71.3232 74.3593 69.7749 73.069 68.2266C69.0692 63.4526 64.6823 58.8077 60.0374 54.5498C59.1342 53.7756 57.7149 53.9047 56.6827 54.2917C56.1666 54.4208 54.3602 55.453 55.2634 56.2271C59.6503 60.356 63.9082 64.7429 67.7789 69.3878C69.7143 71.7103 71.5207 74.0328 73.3271 76.3552C74.2303 77.5165 75.1334 78.6777 75.9076 79.968C76.4237 80.6131 76.8108 81.2582 77.3269 81.9034C77.5849 82.4195 78.2301 82.9356 77.972 83.4517C77.843 83.9678 78.101 84.2258 78.4881 84.4839C79.0042 84.871 80.1655 85 80.5525 85C81.7138 84.871 83.004 84.4839 83.5201 83.4517C88.2941 74.1618 90.8746 63.8397 91.0037 53.3886C91.0037 53.0015 90.3585 52.7434 90.1005 52.6144C89.4554 52.4854 88.8102 52.4854 88.1651 52.6144C87.3909 52.8725 85.9716 53.3886 85.9716 54.4208C85.8426 61.2592 84.6814 67.9685 82.4879 74.4198C79.7784 59.7108 74.6173 45.3889 66.2306 33.0024C57.7149 20.4869 45.7155 9.90672 31.6516 4.10054C22.3617 0.358778 12.2977 -1.44759 2.49166 1.39099C1.84653 1.64904 0.298216 2.4232 1.07237 3.32638C1.7175 4.35859 3.52387 3.84248 4.29803 3.58443Z" fill="#231F20"/>
</svg>